<svg width="88" height="80" viewBox="0 0 88 80" fill="none" xmlns="http://www.w3.org/2000/svg">
<path d="M1.31703 44.9847C-0.43901 41.8985 -0.439008 38.1015 1.31703 35.0153L18.3867 5.01529C20.1521 1.91266 23.4236 1.6614e-06 26.9652 1.50496e-06L61.0348 0C64.5764 -1.56441e-07 67.8479 1.91266 69.6133 5.01529L86.683 35.0153C88.439 38.1015 88.439 41.8985 86.683 44.9847L69.6133 74.9847C67.8479 78.0873 64.5764 80 61.0348 80H26.9652C23.4236 80 20.1521 78.0873 18.3867 74.9847L1.31703 44.9847Z" fill="#2FC9B9"/>
<path d="M27.603 36C27.515 36 27.443 35.972 27.387 35.916C27.331 35.86 27.303 35.788 27.303 35.7V29.304H24.891V30.612C24.891 31.58 24.843 32.404 24.747 33.084C24.651 33.756 24.487 34.304 24.255 34.728C24.023 35.152 23.703 35.468 23.295 35.676C22.895 35.876 22.383 35.984 21.759 36C21.679 36 21.607 35.972 21.543 35.916C21.487 35.852 21.459 35.776 21.459 35.688V34.62C21.459 34.452 21.551 34.352 21.735 34.32C21.967 34.28 22.163 34.168 22.323 33.984C22.491 33.8 22.627 33.544 22.731 33.216C22.843 32.88 22.923 32.476 22.971 32.004C23.019 31.524 23.043 30.98 23.043 30.372V27.9C23.043 27.812 23.071 27.74 23.127 27.684C23.183 27.628 23.251 27.6 23.331 27.6H28.911C28.999 27.6 29.071 27.628 29.127 27.684C29.183 27.74 29.211 27.812 29.211 27.9V35.7C29.211 35.788 29.183 35.86 29.127 35.916C29.071 35.972 28.999 36 28.911 36H27.603ZM32.2475 36C32.1595 36 32.0875 35.972 32.0315 35.916C31.9755 35.852 31.9475 35.78 31.9475 35.7V27.9C31.9475 27.812 31.9755 27.74 32.0315 27.684C32.0955 27.628 32.1675 27.6 32.2475 27.6H33.5555C33.6435 27.6 33.7155 27.628 33.7715 27.684C33.8275 27.74 33.8555 27.812 33.8555 27.9V33.084L37.5395 27.816C37.5795 27.76 37.6275 27.712 37.6835 27.672C37.7475 27.624 37.8275 27.6 37.9235 27.6H39.0995C39.1875 27.6 39.2595 27.628 39.3155 27.684C39.3715 27.74 39.3995 27.812 39.3995 27.9V35.7C39.3995 35.788 39.3715 35.86 39.3155 35.916C39.2595 35.972 39.1875 36 39.0995 36H37.7915C37.7115 36 37.6395 35.972 37.5755 35.916C37.5195 35.86 37.4915 35.788 37.4915 35.7V30.672L33.8075 35.784C33.7835 35.832 33.7435 35.88 33.6875 35.928C33.6315 35.976 33.5475 36 33.4355 36H32.2475ZM41.8662 37.68C41.7862 37.68 41.7182 37.652 41.6622 37.596C41.6062 37.54 41.5782 37.468 41.5782 37.38V34.596C41.5782 34.508 41.6062 34.436 41.6622 34.38C41.7182 34.324 41.7862 34.296 41.8662 34.296H42.0942C42.2862 34.296 42.4502 34.204 42.5862 34.02C42.7222 33.836 42.8302 33.576 42.9102 33.24C42.9902 32.896 43.0502 32.484 43.0902 32.004C43.1302 31.516 43.1502 30.972 43.1502 30.372V27.9C43.1502 27.812 43.1782 27.74 43.2342 27.684C43.2902 27.628 43.3582 27.6 43.4382 27.6H48.8382C48.9262 27.6 48.9982 27.628 49.0542 27.684C49.1102 27.74 49.1382 27.812 49.1382 27.9V34.296H49.7022C49.7902 34.296 49.8622 34.324 49.9182 34.38C49.9742 34.436 50.0022 34.508 50.0022 34.596V37.38C50.0022 37.46 49.9742 37.528 49.9182 37.584C49.8622 37.648 49.7902 37.68 49.7022 37.68H48.3942C48.3062 37.68 48.2342 37.648 48.1782 37.584C48.1222 37.528 48.0942 37.46 48.0942 37.38V36H43.4862V37.38C43.4862 37.46 43.4542 37.528 43.3902 37.584C43.3342 37.648 43.2622 37.68 43.1742 37.68H41.8662ZM44.3862 34.296H47.2302V29.304H44.9982V30.612C44.9982 31.532 44.9462 32.292 44.8422 32.892C44.7382 33.492 44.5862 33.96 44.3862 34.296ZM52.5425 36C52.4545 36 52.3825 35.972 52.3265 35.916C52.2705 35.86 52.2425 35.788 52.2425 35.7V27.9C52.2425 27.812 52.2705 27.74 52.3265 27.684C52.3825 27.628 52.4545 27.6 52.5425 27.6H57.9785C58.0665 27.6 58.1385 27.628 58.1945 27.684C58.2505 27.74 58.2785 27.812 58.2785 27.9V28.86C58.2785 28.94 58.2505 29.008 58.1945 29.064C58.1385 29.12 58.0665 29.148 57.9785 29.148H54.0905V31.032H57.7145C57.8025 31.032 57.8745 31.06 57.9305 31.116C57.9865 31.172 58.0145 31.244 58.0145 31.332V32.22C58.0145 32.3 57.9865 32.368 57.9305 32.424C57.8745 32.48 57.8025 32.508 57.7145 32.508H54.0905V34.452H58.0745C58.1625 34.452 58.2345 34.48 58.2905 34.536C58.3465 34.592 58.3745 34.664 58.3745 34.752V35.7C58.3745 35.788 58.3465 35.86 58.2905 35.916C58.2345 35.972 58.1625 36 58.0745 36H52.5425ZM61.0611 36C60.9731 36 60.9011 35.972 60.8451 35.916C60.7891 35.86 60.7611 35.788 60.7611 35.7V27.9C60.7611 27.812 60.7891 27.74 60.8451 27.684C60.9011 27.628 60.9731 27.6 61.0611 27.6H64.3371C64.9851 27.6 65.5451 27.7 66.0171 27.9C66.4971 28.1 66.8691 28.404 67.1331 28.812C67.4051 29.212 67.5411 29.712 67.5411 30.312C67.5411 30.92 67.4051 31.424 67.1331 31.824C66.8691 32.216 66.4971 32.508 66.0171 32.7C65.5451 32.892 64.9851 32.988 64.3371 32.988H62.7291V35.7C62.7291 35.788 62.7011 35.86 62.6451 35.916C62.5891 35.972 62.5171 36 62.4291 36H61.0611ZM62.6931 31.5H64.2771C64.6851 31.5 65.0011 31.4 65.2251 31.2C65.4571 31 65.5731 30.7 65.5731 30.3C65.5731 29.948 65.4691 29.66 65.2611 29.436C65.0611 29.212 64.7331 29.1 64.2771 29.1H62.6931V31.5ZM15.5497 50C15.4617 50 15.3897 49.972 15.3337 49.916C15.2777 49.86 15.2497 49.788 15.2497 49.7V41.9C15.2497 41.812 15.2777 41.74 15.3337 41.684C15.3897 41.628 15.4617 41.6 15.5497 41.6H22.0177C22.1057 41.6 22.1777 41.628 22.2337 41.684C22.2897 41.74 22.3177 41.812 22.3177 41.9V49.7C22.3177 49.788 22.2897 49.86 22.2337 49.916C22.1777 49.972 22.1057 50 22.0177 50H20.7097C20.6217 50 20.5497 49.972 20.4937 49.916C20.4377 49.86 20.4097 49.788 20.4097 49.7V43.304H17.1577V49.7C17.1577 49.788 17.1297 49.86 17.0737 49.916C17.0177 49.972 16.9457 50 16.8577 50H15.5497ZM25.3574 50C25.2694 50 25.1974 49.972 25.1414 49.916C25.0854 49.86 25.0574 49.788 25.0574 49.7V41.9C25.0574 41.812 25.0854 41.74 25.1414 41.684C25.1974 41.628 25.2694 41.6 25.3574 41.6H28.6334C29.2814 41.6 29.8414 41.7 30.3134 41.9C30.7934 42.1 31.1654 42.404 31.4294 42.812C31.7014 43.212 31.8374 43.712 31.8374 44.312C31.8374 44.92 31.7014 45.424 31.4294 45.824C31.1654 46.216 30.7934 46.508 30.3134 46.7C29.8414 46.892 29.2814 46.988 28.6334 46.988H27.0254V49.7C27.0254 49.788 26.9974 49.86 26.9414 49.916C26.8854 49.972 26.8134 50 26.7254 50H25.3574ZM26.9894 45.5H28.5734C28.9814 45.5 29.2974 45.4 29.5214 45.2C29.7534 45 29.8694 44.7 29.8694 44.3C29.8694 43.948 29.7654 43.66 29.5574 43.436C29.3574 43.212 29.0294 43.1 28.5734 43.1H26.9894V45.5ZM37.3573 50.12C36.6293 50.12 36.0013 50 35.4733 49.76C34.9453 49.52 34.5333 49.16 34.2373 48.68C33.9413 48.192 33.7813 47.58 33.7573 46.844C33.7493 46.5 33.7453 46.16 33.7453 45.824C33.7453 45.48 33.7493 45.132 33.7573 44.78C33.7813 44.06 33.9413 43.456 34.2373 42.968C34.5413 42.472 34.9573 42.1 35.4853 41.852C36.0213 41.604 36.6453 41.48 37.3573 41.48C38.0613 41.48 38.6773 41.604 39.2053 41.852C39.7413 42.1 40.1613 42.472 40.4653 42.968C40.7693 43.456 40.9293 44.06 40.9453 44.78C40.9613 45.132 40.9693 45.48 40.9693 45.824C40.9693 46.16 40.9613 46.5 40.9453 46.844C40.9213 47.58 40.7613 48.192 40.4653 48.68C40.1693 49.16 39.7573 49.52 39.2293 49.76C38.7013 50 38.0773 50.12 37.3573 50.12ZM37.3573 48.572C37.8213 48.572 38.2013 48.432 38.4973 48.152C38.8013 47.864 38.9613 47.408 38.9773 46.784C38.9933 46.432 39.0013 46.104 39.0013 45.8C39.0013 45.488 38.9933 45.16 38.9773 44.816C38.9693 44.4 38.8933 44.06 38.7493 43.796C38.6053 43.532 38.4133 43.34 38.1733 43.22C37.9413 43.092 37.6693 43.028 37.3573 43.028C37.0453 43.028 36.7693 43.092 36.5293 43.22C36.2893 43.34 36.0973 43.532 35.9533 43.796C35.8173 44.06 35.7413 44.4 35.7253 44.816C35.7173 45.16 35.7133 45.488 35.7133 45.8C35.7133 46.104 35.7173 46.432 35.7253 46.784C35.7493 47.408 35.9093 47.864 36.2053 48.152C36.5013 48.432 36.8853 48.572 37.3573 48.572ZM43.1548 51.68C43.0748 51.68 43.0068 51.652 42.9508 51.596C42.8948 51.54 42.8668 51.468 42.8668 51.38V48.596C42.8668 48.508 42.8948 48.436 42.9508 48.38C43.0068 48.324 43.0748 48.296 43.1548 48.296H43.3828C43.5748 48.296 43.7388 48.204 43.8748 48.02C44.0108 47.836 44.1188 47.576 44.1988 47.24C44.2788 46.896 44.3388 46.484 44.3788 46.004C44.4188 45.516 44.4388 44.972 44.4388 44.372V41.9C44.4388 41.812 44.4668 41.74 44.5228 41.684C44.5788 41.628 44.6468 41.6 44.7268 41.6H50.1268C50.2148 41.6 50.2868 41.628 50.3428 41.684C50.3988 41.74 50.4268 41.812 50.4268 41.9V48.296H50.9908C51.0788 48.296 51.1508 48.324 51.2068 48.38C51.2628 48.436 51.2908 48.508 51.2908 48.596V51.38C51.2908 51.46 51.2628 51.528 51.2068 51.584C51.1508 51.648 51.0788 51.68 50.9908 51.68H49.6828C49.5948 51.68 49.5228 51.648 49.4668 51.584C49.4108 51.528 49.3828 51.46 49.3828 51.38V50H44.7748V51.38C44.7748 51.46 44.7428 51.528 44.6788 51.584C44.6228 51.648 44.5508 51.68 44.4628 51.68H43.1548ZM45.6748 48.296H48.5188V43.304H46.2868V44.612C46.2868 45.532 46.2348 46.292 46.1308 46.892C46.0268 47.492 45.8748 47.96 45.6748 48.296ZM53.0391 50C52.9671 50 52.9071 49.976 52.8591 49.928C52.8111 49.872 52.7871 49.812 52.7871 49.748C52.7871 49.708 52.7911 49.672 52.7991 49.64L55.6551 41.924C55.6791 41.836 55.7271 41.76 55.7991 41.696C55.8711 41.632 55.9711 41.6 56.0991 41.6H57.6351C57.7631 41.6 57.8631 41.632 57.9351 41.696C58.0071 41.76 58.0551 41.836 58.0791 41.924L60.9351 49.64C60.9431 49.672 60.9471 49.708 60.9471 49.748C60.9471 49.812 60.9231 49.872 60.8751 49.928C60.8271 49.976 60.7671 50 60.6951 50H59.4471C59.3271 50 59.2391 49.972 59.1831 49.916C59.1271 49.86 59.0911 49.808 59.0751 49.76L58.5591 48.416H55.1751L54.6591 49.76C54.6431 49.808 54.6071 49.86 54.5511 49.916C54.4951 49.972 54.4071 50 54.2871 50H53.0391ZM55.6191 46.868H58.1031L56.8671 43.412L55.6191 46.868ZM62.6523 50C62.5723 50 62.5043 49.976 62.4483 49.928C62.4003 49.872 62.3763 49.804 62.3763 49.724C62.3763 49.668 62.3883 49.624 62.4123 49.592L64.8723 45.644L62.6283 41.996C62.5963 41.948 62.5803 41.9 62.5803 41.852C62.5803 41.788 62.6003 41.732 62.6403 41.684C62.6883 41.628 62.7523 41.6 62.8323 41.6H64.2723C64.3923 41.6 64.4843 41.624 64.5483 41.672C64.6203 41.712 64.6763 41.764 64.7163 41.828L66.5763 44.912H67.4283V41.9C67.4283 41.812 67.4563 41.74 67.5123 41.684C67.5683 41.628 67.6363 41.6 67.7163 41.6H68.9763C69.0563 41.6 69.1243 41.628 69.1803 41.684C69.2363 41.74 69.2643 41.812 69.2643 41.9V44.912H70.0923L71.9643 41.828C72.0043 41.764 72.0603 41.712 72.1323 41.672C72.2043 41.624 72.2963 41.6 72.4083 41.6H73.8603C73.9403 41.6 74.0003 41.628 74.0403 41.684C74.0883 41.732 74.1123 41.788 74.1123 41.852C74.1123 41.9 74.0963 41.948 74.0643 41.996L71.8083 45.644L74.2803 49.592C74.3043 49.624 74.3163 49.668 74.3163 49.724C74.3163 49.804 74.2883 49.872 74.2323 49.928C74.1843 49.976 74.1203 50 74.0403 50H72.5403C72.4203 50 72.3323 49.976 72.2763 49.928C72.2203 49.872 72.1803 49.824 72.1563 49.784L70.1643 46.604H69.2643V49.712C69.2643 49.792 69.2363 49.86 69.1803 49.916C69.1243 49.972 69.0563 50 68.9763 50H67.7163C67.6363 50 67.5683 49.972 67.5123 49.916C67.4563 49.86 67.4283 49.788 67.4283 49.7V46.604H66.5043L64.5363 49.784C64.5043 49.824 64.4603 49.872 64.4043 49.928C64.3483 49.976 64.2643 50 64.1523 50H62.6523Z" fill="#F5FFFF"/>
</svg>
